<?xml version="1.0" encoding="utf-8"?>
<!-- Generator: Adobe Illustrator 26.0.3, SVG Export Plug-In . SVG Version: 6.00 Build 0)  -->
<svg version="1.1" id="Layer_1" xmlns="http://www.w3.org/2000/svg" xmlns:xlink="http://www.w3.org/1999/xlink" x="0px" y="0px"
	 viewBox="0 0 720 405" style="enable-background:new 0 0 720 405;" xml:space="preserve">
<style type="text/css">
	.st0{fill:#8CDCEE;}
	.st1{clip-path:url(#SVGID_00000023979994309576890840000016731413175313203117_);}
	.st2{fill:#EDEDED;}
	.st3{fill:none;stroke:#00243F;stroke-width:0.7924;stroke-miterlimit:10;}
	.st4{fill:#5D5D5D;}
	.st5{fill:#E2E2E2;}
	.st6{fill:#FF6C5B;}
	.st7{fill:#00243F;}
	.st8{fill:#FF9E00;}
	.st9{fill:#CFCFCF;}
	.st10{fill:#FFFFFF;}
	.st11{fill:none;stroke:#FF6C5B;stroke-width:0.5283;stroke-miterlimit:10;}
	.st12{fill:#0074B0;}
	.st13{fill:#FF9E93;}
	.st14{fill:#66ACD0;}
	.st15{fill:#E6EBF2;}
	.st16{fill:#656565;}
	.st17{fill:#F7F7F7;}
	.st18{fill:#E7E7E7;}
	.st19{fill:none;stroke:#E7E7E7;stroke-width:0.67;stroke-miterlimit:10;}
	.st20{fill:#7C9D00;}
	.st21{fill:#00B2D9;}
	.st22{fill:#DCA48C;}
	.st23{fill:#A22F00;}
	.st24{fill:#F6FCFE;}
	.st25{fill:#A5A5A5;}
	.st26{fill:#AAE1F8;}
	.st27{opacity:0.4;}
	.st28{clip-path:url(#SVGID_00000168811312470211575000000018151374964497244307_);}
	.st29{clip-path:url(#SVGID_00000007398073258871690580000002262346757301597617_);}
	.st30{fill:#A3BF00;}
	.st31{clip-path:url(#SVGID_00000052091318837885038760000009123662750463444391_);}
	.st32{fill:#B7B7B7;}
	.st33{fill:#42B0D5;}
	.st34{fill:#F5D2A1;}
	.st35{fill:#3C3C46;}
	.st36{fill:#EDBE73;}
	.st37{fill:#63636B;}
	.st38{fill:none;stroke:#E7E7E7;stroke-width:0.6392;stroke-miterlimit:10;}
	.st39{clip-path:url(#SVGID_00000111153644103241751320000012610486262311649409_);}
	.st40{clip-path:url(#SVGID_00000047032440158569821820000015946621701024142509_);}
	.st41{fill:#FF5E4B;}
	.st42{fill-rule:evenodd;clip-rule:evenodd;fill:#FF9E00;}
	.st43{fill:#F8FAF2;}
	.st44{fill:#CCEDFB;}
	.st45{fill:#D1DF7F;}
	.st46{fill:none;stroke:#66D1E8;stroke-width:3.3316;stroke-miterlimit:6.6632;}
	.st47{fill:none;stroke:#66D1E8;stroke-width:3.3316;stroke-miterlimit:6.6632;stroke-dasharray:5.4438,3.4049;}
	.st48{fill:none;stroke:#66D1E8;stroke-width:3.3316;stroke-miterlimit:6.6632;stroke-dasharray:5.2239,3.265;}
	.st49{fill:none;stroke:#66D1E8;stroke-width:3.3316;stroke-miterlimit:6.6632;stroke-dasharray:5.2906,3.3049;}
	.st50{fill:none;stroke:#66D1E8;stroke-width:3.3316;stroke-miterlimit:6.6632;stroke-dasharray:5.2506,3.285;}
	.st51{fill:none;stroke:#66D1E8;stroke-width:3.3316;stroke-miterlimit:6.6632;stroke-dasharray:5.4105,3.3849;}
	.st52{fill:none;stroke:#66D1E8;stroke-width:3.3316;stroke-miterlimit:6.6632;stroke-dasharray:5.4838,3.4249;}
	.st53{fill:none;stroke:#66D1E8;stroke-width:3.3316;stroke-miterlimit:6.6632;stroke-dasharray:5.3505,3.3449;}
	.st54{fill:none;stroke:#66D1E8;stroke-width:3.3316;stroke-miterlimit:6.6632;stroke-dasharray:5.3172,3.3249;}
	.st55{fill:none;stroke:#66D1E8;stroke-width:3.3316;stroke-miterlimit:6.6632;stroke-dasharray:5.4238,3.3916;}
	.st56{enable-background:new    ;}
	.st57{fill:#CBCBCB;}
	.st58{fill:#545454;}
	.st59{fill:#E0E0E0;}
	.st60{fill:#878787;}
	.st61{fill:#335066;}
	.st62{fill:#667C8C;}
	.st63{fill:#DBDBDB;}
	.st64{fill:#FA6A55;}
	.st65{fill:#FFCE7F;}
	.st66{clip-path:url(#SVGID_00000108274504316809423630000008694987629344929959_);}
	.st67{fill:#FF6441;}
	.st68{fill:#F0BE78;}
	.st69{fill:none;stroke:#FF6441;stroke-width:0.2732;stroke-miterlimit:6.6632;}
	.st70{fill:#C4E7F2;}
	.st71{clip-path:url(#SVGID_00000130608738360062767670000001190769520451649705_);}
	.st72{clip-path:url(#SVGID_00000019679428800093689390000002809309703361048489_);}
	.st73{fill:none;}
	.st74{fill:none;stroke:#E7E7E7;stroke-width:0.2732;stroke-miterlimit:6.6632;}
	.st75{fill:#FFAC26;}
	.st76{fill:#3B576C;}
	.st77{fill:#FFCCB4;}
	.st78{fill:#E0AD98;}
	.st79{fill:none;stroke:#545454;stroke-width:9.328475e-02;stroke-miterlimit:6.6632;}
	.st80{fill:#FF6D00;}
	.st81{fill:#66D1E8;}
	.st82{clip-path:url(#SVGID_00000062890397600479782080000017857710435560509362_);}
	.st83{clip-path:url(#SVGID_00000174602549112947606990000004825012546655711905_);}
	.st84{fill:#A0745E;}
	.st85{fill:#1A82B8;}
	.st86{fill-rule:evenodd;clip-rule:evenodd;fill:#3C3C46;}
	.st87{fill:#FFC566;}
	.st88{clip-path:url(#SVGID_00000082331654929835740190000005469270352853212591_);}
	.st89{clip-path:url(#SVGID_00000181807482275823881210000018229474238616511636_);}
	.st90{fill:none;stroke:#E7E7E7;stroke-width:0.1799;stroke-miterlimit:6.6632;}
	.st91{fill:none;stroke:#E7E7E7;stroke-width:0.1599;stroke-miterlimit:6.6632;}
	.st92{fill:#002D55;}
	.st93{fill:#FFB133;}
	.st94{fill:none;stroke:#000000;stroke-width:0.3731;stroke-miterlimit:6.6632;}
	.st95{fill:#6B4A3E;}
	.st96{fill:#1A887A;}
	.st97{fill:#ABABAB;}
	.st98{fill:#FF8A33;}
	.st99{fill:none;stroke:#00243F;stroke-width:0.5264;stroke-miterlimit:6.6632;}
	.st100{fill:none;stroke:#FF6C5B;stroke-width:0.3531;stroke-miterlimit:6.6632;}
	.st101{fill:none;stroke:#E7E7E7;stroke-width:0.4464;stroke-miterlimit:6.6632;}
	.st102{clip-path:url(#SVGID_00000159434257947487259680000007397425428388857745_);}
	.st103{clip-path:url(#SVGID_00000150801662424070091820000009074820689625461438_);}
	.st104{clip-path:url(#SVGID_00000062883792240015003210000015976735060539718291_);}
	.st105{clip-path:url(#SVGID_00000036239808721695922890000013776208097693400743_);}
	.st106{clip-path:url(#SVGID_00000009589330233391281050000000669282305623663278_);}
	.st107{clip-path:url(#SVGID_00000092414526943636068770000016520787639799507384_);}
	.st108{clip-path:url(#SVGID_00000082340364783573510100000003279909005300567187_);}
	.st109{clip-path:url(#SVGID_00000057828083241593678400000015544511205802130875_);}
	.st110{clip-path:url(#SVGID_00000138558388074453015990000010864539550838080422_);}
	.st111{fill:none;stroke:#E7E7E7;stroke-width:0.1133;stroke-miterlimit:6.6632;}
	.st112{fill:none;stroke:#E7E7E7;stroke-width:9.994794e-02;stroke-miterlimit:6.6632;}
	.st113{fill:#6D6D74;}
	.st114{fill:#FC9A8C;}
	.st115{clip-path:url(#SVGID_00000052082799873554664850000003412578426553345921_);}
	.st116{clip-path:url(#SVGID_00000041257046994388237280000009380657705545819292_);}
	.st117{clip-path:url(#SVGID_00000117677397314126698500000013460861180433731234_);}
	.st118{clip-path:url(#SVGID_00000026880682185290787870000006398751033871456897_);}
	.st119{fill:none;stroke:#CFCFCF;stroke-width:0.7529;stroke-miterlimit:6.6632;}
	.st120{fill:none;stroke:#C3C3C3;stroke-width:0.5264;stroke-miterlimit:6.6632;}
	.st121{fill:#C3C3C3;}
	.st122{fill:none;stroke:#000000;stroke-width:0.7063;stroke-miterlimit:6.6632;}
	.st123{fill:#545454;stroke:#CFCFCF;stroke-width:0.1732;stroke-miterlimit:6.6632;}
	.st124{fill:#FFFFFF;stroke:#CFCFCF;stroke-width:0.1732;stroke-miterlimit:6.6632;}
	.st125{fill:none;stroke:#FFFFFF;stroke-width:0.1799;stroke-miterlimit:6.6632;}
	.st126{clip-path:url(#SVGID_00000162336348751002474130000010844244437108103060_);}
	.st127{clip-path:url(#SVGID_00000087407496020083237870000006377067678794455715_);}
	.st128{fill:none;stroke:#42B0D5;stroke-width:0.5264;stroke-miterlimit:6.6632;}
	.st129{fill:none;stroke:#E7E7E7;stroke-width:0.4264;stroke-miterlimit:6.6632;}
	.st130{clip-path:url(#SVGID_00000139987745168290269110000016077044450081872306_);}
	.st131{clip-path:url(#SVGID_00000136386755909143185870000016623599131001363098_);}
	.st132{fill:#DDF3FC;}
	.st133{fill:#FF6A66;}
	.st134{fill:#FFCE7F;stroke:#FFC566;stroke-width:8.662155e-02;stroke-miterlimit:6.6632;}
	.st135{fill:#F6F6F6;}
	.st136{fill:#9F9F9F;}
	.st137{fill:#A8A8A8;}
	.st138{fill:#D8D8D8;}
	.st139{fill:none;stroke:#878787;stroke-width:0.5064;stroke-miterlimit:6.6632;}
	.st140{fill:#B1B1B5;}
	.st141{fill:#D9D9D9;}
	.st142{fill:none;stroke:#00243F;stroke-width:0.8795;stroke-miterlimit:6.6632;}
	.st143{fill:none;stroke:#00B2D9;stroke-width:0.553;stroke-miterlimit:6.6632;}
	.st144{fill-rule:evenodd;clip-rule:evenodd;}
	.st145{clip-path:url(#SVGID_00000149383800931415426280000018333905266206326197_);}
	.st146{fill:none;stroke:#E7E7E7;stroke-width:0.3459;stroke-miterlimit:10;}
	.st147{fill:none;stroke:#E7E7E7;stroke-width:0.3143;stroke-miterlimit:10;}
	.st148{clip-path:url(#SVGID_00000134216438016207588410000015395800531376666781_);}
	.st149{clip-path:url(#SVGID_00000109708215361562267930000004067899521470125196_);}
	.st150{clip-path:url(#SVGID_00000129908287835897446640000013875521547029193361_);}
	.st151{fill:#FFCE7F;stroke:#FFC566;stroke-width:0.1656;stroke-miterlimit:10;}
	.st152{fill:none;stroke:#E7E7E7;stroke-width:0.5272;stroke-miterlimit:10;}
	.st153{fill:none;stroke:#878787;stroke-width:0.7262;stroke-miterlimit:10;}
	.st154{fill:none;stroke:#E7E7E7;stroke-width:0.3832;stroke-miterlimit:10;}
</style>
<g id="Layer_2_00000163047025801598464010000002755732334583926445_">
	<g>
		<path class="st0" d="M360,11.7c24.6,0,47.1,0.6,67.6,1.8c22.7,1.2,45.3,3.8,67.6,7.8c27.4,5.1,49.7,12.5,67.6,22.4
			c51.5,28.5,67.6,78.4,67.6,158.8c0,80.4-16.1,130.3-67.6,158.8c-18,9.9-40.2,17.3-67.6,22.4c-22.4,4-44.9,6.6-67.6,7.8
			c-20.5,1.2-43,1.8-67.6,1.8s-47.1-0.6-67.6-1.8c-22.7-1.2-45.3-3.8-67.6-7.8c-27.4-5.1-49.7-12.4-67.6-22.3
			c-51.6-28.5-67.6-78.4-67.6-159c0-80.5,16-130.5,67.6-158.9c18-9.9,40.2-17.2,67.6-22.3c22.4-4,44.9-6.6,67.6-7.8
			C312.9,12.2,335.4,11.7,360,11.7z"/>
		<g>
			<defs>
				<path id="SVGID_00000042004443644514086320000008806876622936132277_" d="M360,11.7c24.6,0,47.1,0.6,67.6,1.8
					c22.7,1.2,45.3,3.8,67.6,7.8c27.4,5.1,49.7,12.5,67.6,22.4c51.5,28.5,67.6,78.4,67.6,158.8c0,80.4-16.1,130.3-67.6,158.8
					c-18,9.9-40.2,17.3-67.6,22.4c-22.4,4-44.9,6.6-67.6,7.8c-20.5,1.2-43,1.8-67.6,1.8s-47.1-0.6-67.6-1.8
					c-22.7-1.2-45.3-3.8-67.6-7.8c-27.4-5.1-49.7-12.4-67.6-22.3c-51.6-28.5-67.6-78.4-67.6-159c0-80.5,16-130.5,67.6-158.9
					c18-9.9,40.2-17.2,67.6-22.3c22.4-4,44.9-6.6,67.6-7.8C312.9,12.2,335.4,11.7,360,11.7z"/>
			</defs>
			<clipPath id="SVGID_00000087383194497506570380000007937607227693089171_">
				<use xlink:href="#SVGID_00000042004443644514086320000008806876622936132277_"  style="overflow:visible;"/>
			</clipPath>
			<g style="clip-path:url(#SVGID_00000087383194497506570380000007937607227693089171_);">
				<polygon class="st32" points="651,398.1 72.6,398.1 71,171 649.4,171 				"/>
			</g>
		</g>
	</g>
	<g id="artwork_00000105388223046804890810000000786745354671390100_">
		<g>
			<path class="st35" d="M568,129.5h34.4c2.9,0,5.3,2.3,5.3,5.3v45.1l0,0h-45l0,0v-45.1C562.8,131.8,565.1,129.5,568,129.5z"/>
			<line class="st146" x1="585.3" y1="129.5" x2="585.3" y2="180"/>
			<path class="st113" d="M568.9,135.1h2.1c0.6,0,1.2,0.4,1.2,1.2v37.4c0,0.6-0.4,1.2-1.2,1.2h-2.1c-0.6,0-1.2-0.4-1.2-1.2v-37.5
				C567.7,135.5,568.3,135.1,568.9,135.1z"/>
			<path class="st113" d="M578,135.1h2.1c0.6,0,1.2,0.4,1.2,1.2v37.4c0,0.6-0.4,1.2-1.2,1.2H578c-0.6,0-1.2-0.4-1.2-1.2v-37.5
				C577,135.5,577.4,135.1,578,135.1z"/>
			<path class="st113" d="M590.5,135.1h2.1c0.6,0,1.2,0.4,1.2,1.2v37.4c0,0.6-0.4,1.2-1.2,1.2h-2.1c-0.6,0-1.2-0.4-1.2-1.2v-37.5
				C589.4,135.5,589.9,135.1,590.5,135.1z"/>
			<path class="st113" d="M599.7,135.1h2.1c0.6,0,1.2,0.4,1.2,1.2v37.4c0,0.6-0.4,1.2-1.2,1.2h-2.1c-0.6,0-1.2-0.4-1.2-1.2v-37.5
				C598.5,135.5,599,135.1,599.7,135.1z"/>
			<path class="st64" d="M556.9,180h-45l0,0v-45.3c0-2.9,2.3-5.3,5.3-5.3h34.4c2.9,0,5.3,2.3,5.3,5.3V180L556.9,180z"/>
			<line class="st146" x1="534.3" y1="129.5" x2="534.3" y2="180"/>
			<path class="st114" d="M550.7,174.6h-2.1c-0.6,0-1.2-0.4-1.2-1.2v-37.4c0-0.6,0.4-1.2,1.2-1.2h2.1c0.6,0,1.2,0.4,1.2,1.2v37.4
				C551.9,174,551.3,174.6,550.7,174.6z"/>
			<path class="st114" d="M541.7,174.6h-2.1c-0.6,0-1.2-0.4-1.2-1.2v-37.4c0-0.6,0.4-1.2,1.2-1.2h2.1c0.6,0,1.2,0.4,1.2,1.2v37.4
				C542.8,174,542.2,174.6,541.7,174.6z"/>
			<path class="st114" d="M529.2,174.6h-2.1c-0.6,0-1.2-0.4-1.2-1.2v-37.4c0-0.6,0.4-1.2,1.2-1.2h2.1c0.6,0,1.2,0.4,1.2,1.2v37.4
				C530.2,174,529.8,174.6,529.2,174.6z"/>
			<path class="st114" d="M520.1,174.6h-2.1c-0.6,0-1.2-0.4-1.2-1.2v-37.4c0-0.6,0.4-1.2,1.2-1.2h2.1c0.6,0,1.2,0.4,1.2,1.2v37.4
				C521.1,174,520.7,174.6,520.1,174.6z"/>
			<path class="st61" d="M558.7,235.6h-45l0,0v-45.1c0-2.9,2.3-5.3,5.3-5.3h34.4c2.9,0,5.3,2.3,5.3,5.3V235.6L558.7,235.6z"/>
			<line class="st146" x1="536.1" y1="185.2" x2="536.1" y2="235.6"/>
			<path class="st62" d="M552.5,230.1h-2.1c-0.6,0-1.2-0.4-1.2-1.2v-37.4c0-0.6,0.4-1.2,1.2-1.2h2.1c0.6,0,1.2,0.4,1.2,1.2V229
				C553.7,229.7,553.1,230.1,552.5,230.1z"/>
			<path class="st62" d="M543.4,230.1h-2.1c-0.6,0-1.2-0.4-1.2-1.2v-37.4c0-0.6,0.4-1.2,1.2-1.2h2.1c0.6,0,1.2,0.4,1.2,1.2V229
				C544.4,229.7,544,230.1,543.4,230.1z"/>
			<path class="st62" d="M531,230.1h-2.1c-0.6,0-1.2-0.4-1.2-1.2v-37.4c0-0.6,0.4-1.2,1.2-1.2h2.1c0.6,0,1.2,0.4,1.2,1.2V229
				C532,229.7,531.5,230.1,531,230.1z"/>
			<path class="st62" d="M521.9,230.1h-2.1c-0.6,0-1.2-0.4-1.2-1.2v-37.4c0-0.6,0.4-1.2,1.2-1.2h2.1c0.6,0,1.2,0.4,1.2,1.2V229
				C522.9,229.7,522.5,230.1,521.9,230.1z"/>
			<path class="st64" d="M467.5,185.2h34.4c2.9,0,5.3,2.3,5.3,5.3v45.1l0,0h-45l0,0v-45.1C462.2,187.5,464.6,185.2,467.5,185.2z"/>
			<line class="st146" x1="484.8" y1="185.2" x2="484.8" y2="235.6"/>
			<path class="st114" d="M468.4,190.6h2.1c0.6,0,1.2,0.4,1.2,1.2v37.4c0,0.6-0.4,1.2-1.2,1.2h-2.1c-0.6,0-1.2-0.4-1.2-1.2v-37.4
				C467.2,191,467.8,190.6,468.4,190.6z"/>
			<path class="st114" d="M477.5,190.6h2.1c0.6,0,1.2,0.4,1.2,1.2v37.4c0,0.6-0.4,1.2-1.2,1.2h-2.1c-0.6,0-1.2-0.4-1.2-1.2v-37.4
				C476.3,191,476.9,190.6,477.5,190.6z"/>
			<path class="st114" d="M489.9,190.6h2.1c0.6,0,1.2,0.4,1.2,1.2v37.4c0,0.6-0.4,1.2-1.2,1.2h-2.1c-0.6,0-1.2-0.4-1.2-1.2v-37.4
				C488.9,191,489.3,190.6,489.9,190.6z"/>
			<path class="st114" d="M499,190.6h2.1c0.6,0,1.2,0.4,1.2,1.2v37.4c0,0.6-0.4,1.2-1.2,1.2H499c-0.6,0-1.2-0.4-1.2-1.2v-37.4
				C498,191,498.4,190.6,499,190.6z"/>
			<path class="st15" d="M568.3,185.3h34.1c2.9,0,5.3,2.3,5.3,5.3v44.8l0,0h-44.7l0,0v-44.8C563.1,187.7,565.4,185.3,568.3,185.3z"
				/>
			<line class="st147" x1="585.5" y1="185.3" x2="585.5" y2="235.4"/>
			<path class="st18" d="M569.2,190.7h2.1c0.6,0,1,0.4,1,1v37.1c0,0.6-0.4,1-1,1h-2.1c-0.6,0-1-0.4-1-1v-37.1
				C568,191.2,568.6,190.7,569.2,190.7z"/>
			<path class="st18" d="M578.1,190.7h2.1c0.6,0,1,0.4,1,1v37.1c0,0.6-0.4,1-1,1h-2.1c-0.6,0-1-0.4-1-1v-37.1
				C577.1,191.2,577.6,190.7,578.1,190.7z"/>
			<path class="st18" d="M590.6,190.7h2.1c0.6,0,1,0.4,1,1v37.1c0,0.6-0.4,1-1,1h-2.1c-0.6,0-1-0.4-1-1v-37.1
				C589.6,191.2,590,190.7,590.6,190.7z"/>
			<path class="st18" d="M599.7,190.7h2.1c0.6,0,1,0.4,1,1v37.1c0,0.6-0.4,1-1,1h-2.1c-0.6,0-1-0.4-1-1v-37.1
				C598.5,191.2,599.1,190.7,599.7,190.7z"/>
		</g>
		<path class="st20" d="M288.3,182.9v-40.6c0-2.6,2.1-4.7,4.7-4.7l0,0h147.8c2.6,0,4.7,2.1,4.7,4.7l0,0v40.4H288.3V182.9z"/>
		<g class="st27">
			<g>
				<g>
					<g>
						<defs>
							<rect id="SVGID_00000044164115462486805110000013640216560344681917_" x="295.4" y="144.5" width="143.2" height="31.5"/>
						</defs>
						<clipPath id="SVGID_00000105393825825899712260000015209395752515293061_">
							<use xlink:href="#SVGID_00000044164115462486805110000013640216560344681917_"  style="overflow:visible;"/>
						</clipPath>
						<g style="clip-path:url(#SVGID_00000105393825825899712260000015209395752515293061_);">
							<g>
								<g>
									<g>
										<defs>
											
												<rect id="SVGID_00000029023648561071181250000007924002027040796597_" x="295.4" y="144.5" width="143.2" height="31.5"/>
										</defs>
										<clipPath id="SVGID_00000097487089041895024400000014791574726418748059_">
											<use xlink:href="#SVGID_00000029023648561071181250000007924002027040796597_"  style="overflow:visible;"/>
										</clipPath>
										<g style="clip-path:url(#SVGID_00000097487089041895024400000014791574726418748059_);">
											<path class="st30" d="M436,176h1.6c0.4,0,0.9-0.4,0.9-0.9l0,0v-29.7c0-0.4-0.4-0.9-0.9-0.9H436c-0.4,0-0.9,0.4-0.9,0.9
												v29.7C435.2,175.6,435.6,176,436,176L436,176"/>
											<path class="st30" d="M428.3,176h1.6c0.4,0,0.9-0.4,0.9-0.9v-29.7c0-0.4-0.4-0.9-0.9-0.9h-1.6c-0.4,0-0.9,0.4-0.9,0.9
												v29.7C427.4,175.6,427.8,176,428.3,176L428.3,176"/>
											<path class="st30" d="M420.5,176h1.6c0.4,0,0.9-0.4,0.9-0.9v-29.7c0-0.4-0.4-0.9-0.9-0.9h-1.6c-0.4,0-0.9,0.4-0.9,0.9
												v29.7C419.6,175.6,420.1,176,420.5,176L420.5,176"/>
											<path class="st30" d="M412.7,176h1.6c0.4,0,0.9-0.4,0.9-0.9v-29.7c0-0.4-0.4-0.9-0.9-0.9h-1.6c-0.4,0-0.9,0.4-0.9,0.9
												v29.7C411.9,175.6,412.3,176,412.7,176L412.7,176"/>
											<path class="st30" d="M405,176h1.6c0.4,0,0.9-0.4,0.9-0.9v-29.7c0-0.4-0.4-0.9-0.9-0.9H405c-0.4,0-0.9,0.4-0.9,0.9v29.7
												C404.1,175.6,404.5,176,405,176L405,176"/>
											<path class="st30" d="M397.2,176h1.6c0.4,0,0.9-0.4,0.9-0.9l0,0v-29.7c0-0.4-0.4-0.9-0.9-0.9h-1.6
												c-0.4,0-0.9,0.4-0.9,0.9v29.7C396.3,175.6,396.8,176,397.2,176L397.2,176"/>
											<path class="st30" d="M389.4,176h1.6c0.4,0,0.9-0.4,0.9-0.9l0,0v-29.7c0-0.4-0.4-0.9-0.9-0.9h-1.6
												c-0.4,0-0.9,0.4-0.9,0.9v29.7C388.6,175.6,389,176,389.4,176L389.4,176"/>
											<path class="st30" d="M381.7,176h1.6c0.4,0,0.9-0.4,0.9-0.9v-29.7c0-0.4-0.4-0.9-0.9-0.9h-1.6c-0.4,0-0.9,0.4-0.9,0.9
												v29.7C380.8,175.6,381.2,176,381.7,176L381.7,176"/>
											<path class="st30" d="M373.9,176h1.6c0.4,0,0.9-0.4,0.9-0.9v-29.7c0-0.4-0.4-0.9-0.9-0.9h-1.6c-0.4,0-0.9,0.4-0.9,0.9
												v29.7C373,175.6,373.5,176,373.9,176L373.9,176"/>
											<path class="st30" d="M366.1,176h1.6c0.4,0,0.9-0.4,0.9-0.9v-29.7c0-0.4-0.4-0.9-0.9-0.9h-1.6c-0.4,0-0.9,0.4-0.9,0.9
												v29.7C365.3,175.6,365.7,176,366.1,176L366.1,176"/>
											<path class="st30" d="M358.4,176h1.6c0.4,0,0.9-0.4,0.9-0.9v-29.7c0-0.4-0.4-0.9-0.9-0.9h-1.6c-0.4,0-0.9,0.4-0.9,0.9
												v29.7C357.5,175.6,357.9,176,358.4,176L358.4,176"/>
											<path class="st30" d="M350.6,176h1.6c0.4,0,0.9-0.4,0.9-0.9l0,0v-29.7c0-0.4-0.4-0.9-0.9-0.9h-1.6
												c-0.4,0-0.9,0.4-0.9,0.9v29.7C349.7,175.6,350.2,176,350.6,176L350.6,176"/>
											<path class="st30" d="M342.8,176h1.6c0.4,0,0.9-0.4,0.9-0.9l0,0v-29.7c0-0.4-0.4-0.9-0.9-0.9h-1.6
												c-0.4,0-0.9,0.4-0.9,0.9v29.7C342,175.6,342.4,176,342.8,176L342.8,176"/>
											<path class="st30" d="M335.1,176h1.6c0.4,0,0.9-0.4,0.9-0.9v-29.7c0-0.4-0.4-0.9-0.9-0.9h-1.6c-0.4,0-0.9,0.4-0.9,0.9
												v29.7C334.2,175.6,334.6,176,335.1,176L335.1,176"/>
											<path class="st30" d="M327.3,176h1.6c0.4,0,0.9-0.4,0.9-0.9v-29.7c0-0.4-0.4-0.9-0.9-0.9h-1.6c-0.4,0-0.9,0.4-0.9,0.9
												v29.7C326.4,175.6,326.9,176,327.3,176L327.3,176"/>
											<path class="st30" d="M319.5,176h1.6c0.4,0,0.9-0.4,0.9-0.9v-29.7c0-0.4-0.4-0.9-0.9-0.9h-1.6c-0.4,0-0.9,0.4-0.9,0.9
												v29.7C318.7,175.6,319.1,176,319.5,176L319.5,176"/>
											<path class="st30" d="M311.8,176h1.6c0.4,0,0.9-0.4,0.9-0.9v-29.7c0-0.4-0.4-0.9-0.9-0.9h-1.6c-0.4,0-0.9,0.4-0.9,0.9
												v29.7C310.9,175.6,311.3,176,311.8,176L311.8,176"/>
											<path class="st30" d="M304,176h1.6c0.4,0,0.9-0.4,0.9-0.9l0,0v-29.7c0-0.4-0.4-0.9-0.9-0.9H304c-0.4,0-0.9,0.4-0.9,0.9
												v29.7C303.1,175.6,303.6,176,304,176L304,176"/>
											<path class="st30" d="M296.2,176h1.6c0.4,0,0.9-0.4,0.9-0.9l0,0v-29.7c0-0.4-0.4-0.9-0.9-0.9h-1.6
												c-0.4,0-0.9,0.4-0.9,0.9v29.7C295.4,175.6,295.7,176,296.2,176L296.2,176"/>
										</g>
									</g>
								</g>
							</g>
						</g>
					</g>
				</g>
			</g>
		</g>
		<path class="st2" d="M441.9,238.3v-40.6c0-2.6-2.1-4.7-4.7-4.7l0,0H289.5c-2.6,0-4.7,2.1-4.7,4.7l0,0v40.4h157.1V238.3z"/>
		<path class="st5" d="M294.2,231.4h-1.5c-0.4,0-0.9-0.4-0.9-0.9l0,0v-29.7c0-0.4,0.4-0.9,0.9-0.9l0,0h1.6c0.4,0,0.9,0.4,0.9,0.9
			l0,0v29.7C295.1,231,294.6,231.4,294.2,231.4L294.2,231.4"/>
		<path class="st5" d="M302,231.4h-1.6c-0.4,0-0.9-0.4-0.9-0.9v-29.7c0-0.4,0.4-0.9,0.9-0.9h1.6c0.4,0,0.9,0.4,0.9,0.9l0,0v29.7
			C302.8,231,302.5,231.4,302,231.4L302,231.4"/>
		<path class="st5" d="M309.7,231.4h-1.6c-0.4,0-0.9-0.4-0.9-0.9v-29.7c0-0.4,0.4-0.9,0.9-0.9h1.6c0.4,0,0.9,0.4,0.9,0.9l0,0v29.7
			C310.6,231,310.3,231.4,309.7,231.4L309.7,231.4"/>
		<path class="st5" d="M317.5,231.4h-1.6c-0.4,0-0.9-0.4-0.9-0.9v-29.7c0-0.4,0.4-0.9,0.9-0.9h1.6c0.4,0,0.9,0.4,0.9,0.9l0,0v29.7
			C318.4,231,318.1,231.4,317.5,231.4L317.5,231.4"/>
		<path class="st5" d="M325.3,231.4h-1.6c-0.4,0-0.9-0.4-0.9-0.9v-29.7c0-0.4,0.4-0.9,0.9-0.9h1.6c0.4,0,0.9,0.4,0.9,0.9l0,0v29.7
			C326.1,231,325.8,231.4,325.3,231.4L325.3,231.4"/>
		<path class="st5" d="M333,231.4h-1.6c-0.4,0-0.9-0.4-0.9-0.9l0,0v-29.7c0-0.4,0.4-0.9,0.9-0.9l0,0h1.6c0.4,0,0.9,0.4,0.9,0.9l0,0
			v29.7C333.9,231,333.6,231.4,333,231.4L333,231.4"/>
		<path class="st5" d="M340.8,231.4h-1.6c-0.4,0-0.9-0.4-0.9-0.9l0,0v-29.7c0-0.4,0.4-0.9,0.9-0.9l0,0h1.6c0.4,0,0.9,0.4,0.9,0.9
			l0,0v29.7C341.7,231,341.4,231.4,340.8,231.4L340.8,231.4"/>
		<path class="st5" d="M348.6,231.4h-1.6c-0.4,0-0.9-0.4-0.9-0.9v-29.7c0-0.4,0.4-0.9,0.9-0.9h1.6c0.4,0,0.9,0.4,0.9,0.9l0,0v29.7
			C349.4,231,349.1,231.4,348.6,231.4L348.6,231.4"/>
		<path class="st5" d="M356.3,231.4h-1.6c-0.4,0-0.9-0.4-0.9-0.9v-29.7c0-0.4,0.4-0.9,0.9-0.9h1.6c0.4,0,0.9,0.4,0.9,0.9l0,0v29.7
			C357.2,231,356.9,231.4,356.3,231.4L356.3,231.4"/>
		<path class="st5" d="M364.1,231.4h-1.6c-0.4,0-0.9-0.4-0.9-0.9v-29.7c0-0.4,0.4-0.9,0.9-0.9h1.6c0.4,0,0.9,0.4,0.9,0.9l0,0v29.7
			C365.1,231,364.7,231.4,364.1,231.4L364.1,231.4"/>
		<path class="st5" d="M372,231.4h-1.6c-0.4,0-0.9-0.4-0.9-0.9v-29.7c0-0.4,0.4-0.9,0.9-0.9h1.6c0.4,0,0.9,0.4,0.9,0.9l0,0v29.7
			C372.9,231,372.4,231.4,372,231.4L372,231.4"/>
		<path class="st5" d="M379.8,231.4h-1.6c-0.4,0-0.9-0.4-0.9-0.9l0,0v-29.7c0-0.4,0.4-0.9,0.9-0.9l0,0h1.6c0.4,0,0.9,0.4,0.9,0.9
			l0,0v29.7C380.6,231,380.2,231.4,379.8,231.4L379.8,231.4"/>
		<path class="st5" d="M387.5,231.4h-1.6c-0.4,0-0.9-0.4-0.9-0.9l0,0v-29.7c0-0.4,0.4-0.9,0.9-0.9l0,0h1.6c0.4,0,0.9,0.4,0.9,0.9
			l0,0v29.7C388.4,231,388,231.4,387.5,231.4L387.5,231.4"/>
		<path class="st5" d="M395.3,231.4h-1.6c-0.4,0-0.9-0.4-0.9-0.9v-29.7c0-0.4,0.4-0.9,0.9-0.9h1.6c0.4,0,0.9,0.4,0.9,0.9l0,0v29.7
			C396.2,231,395.7,231.4,395.3,231.4L395.3,231.4"/>
		<path class="st5" d="M403.1,231.4h-1.6c-0.4,0-0.9-0.4-0.9-0.9v-29.7c0-0.4,0.4-0.9,0.9-0.9h1.6c0.4,0,0.9,0.4,0.9,0.9l0,0v29.7
			C403.9,231,403.5,231.4,403.1,231.4L403.1,231.4"/>
		<path class="st5" d="M410.8,231.4h-1.6c-0.4,0-0.9-0.4-0.9-0.9v-29.7c0-0.4,0.4-0.9,0.9-0.9h1.6c0.4,0,0.9,0.4,0.9,0.9l0,0v29.7
			C411.7,231,411.3,231.4,410.8,231.4L410.8,231.4"/>
		<path class="st5" d="M418.6,231.4H417c-0.4,0-0.9-0.4-0.9-0.9v-29.7c0-0.4,0.4-0.9,0.9-0.9h1.6c0.4,0,0.9,0.4,0.9,0.9l0,0v29.7
			C419.5,231,419,231.4,418.6,231.4L418.6,231.4"/>
		<path class="st5" d="M426.4,231.4h-1.6c-0.4,0-0.9-0.4-0.9-0.9l0,0v-29.7c0-0.4,0.4-0.9,0.9-0.9l0,0h1.6c0.4,0,0.9,0.4,0.9,0.9
			l0,0v29.7C427.2,231,426.8,231.4,426.4,231.4L426.4,231.4"/>
		<path class="st5" d="M434.1,231.4h-1.6c-0.4,0-0.9-0.4-0.9-0.9l0,0v-29.7c0-0.4,0.4-0.9,0.9-0.9l0,0h1.6c0.4,0,0.9,0.4,0.9,0.9
			l0,0v29.7C435,231,434.6,231.4,434.1,231.4L434.1,231.4"/>
		<g>
			<rect x="439" y="314" class="st4" width="182.7" height="12"/>
			<path class="st21" d="M673.4,296.9l-9.9-21.6c-0.5-1.2-1.8-1.9-3-1.9h-35.4c-1.9,0-3.4,1.6-3.4,3.4v53.5h17.5
				c0.4-12.2,4.2-15.4,13.6-15.4c9.2,0,13.1,3,13.5,15.4h4.1c1.9,0,3.4-1.6,3.4-3.4l0,0v-28.3C673.6,297.9,673.6,297.4,673.4,296.9"
				/>
			<path class="st7" d="M474.9,328.5c0,5.8-5,10.6-10.8,10.4c-5.8,0-10.6-5-10.4-10.8c0-5.8,4.8-10.4,10.6-10.4
				C470.3,317.9,475.1,322.7,474.9,328.5"/>
			<path class="st5" d="M470.3,328.5c0,3.4-2.8,6-6,5.8c-3.4,0-6-2.8-5.8-6c0-3.4,2.7-5.8,6-5.8
				C467.6,322.5,470.3,325.2,470.3,328.5"/>
			<path class="st7" d="M499.3,328.5c0,5.8-5,10.6-10.8,10.4c-5.8,0-10.6-5-10.4-10.8c0-5.8,4.8-10.4,10.6-10.4
				C494.7,317.9,499.3,322.7,499.3,328.5"/>
			<path class="st5" d="M494.7,328.5c0,3.4-2.8,6-6,5.8c-3.2-0.2-6-2.8-5.8-6c0-3.4,2.7-5.8,6-5.8
				C492.1,322.5,494.7,325.2,494.7,328.5"/>
			<path class="st7" d="M588.2,328.5c0,5.8-5,10.6-10.8,10.4c-5.8,0-10.6-5-10.4-10.8c0-5.8,4.8-10.4,10.6-10.4
				C583.5,317.9,588.2,322.7,588.2,328.5"/>
			<path class="st5" d="M583.6,328.5c0,3.4-2.8,6-6,5.8c-3.4,0-6-2.8-5.8-6c0-3.2,2.7-5.8,6-5.8C581,322.5,583.6,325.2,583.6,328.5"
				/>
			<path class="st7" d="M612.7,328.5c0,5.8-5,10.6-10.8,10.4c-5.8,0-10.6-5-10.4-10.8c0-5.8,4.8-10.4,10.6-10.4
				C607.9,317.9,612.7,322.7,612.7,328.5"/>
			<path class="st5" d="M607.9,328.5c0,3.4-2.8,6-6,5.8c-3.4,0-6-2.8-5.8-6c0-3.4,2.7-5.8,6-5.8
				C605.2,322.5,607.9,325.2,607.9,328.5"/>
			<path class="st7" d="M663.3,328.5c0,5.8-5,10.6-10.8,10.4c-5.8,0-10.6-5-10.4-10.8c0-5.8,4.8-10.4,10.6-10.4
				C658.7,317.9,663.5,322.7,663.3,328.5"/>
			<path class="st5" d="M658.7,328.5c0,3.4-2.8,6-6,5.8c-3.4,0-6-2.8-5.8-6c0-3.4,2.7-5.8,6-5.8
				C656.1,322.5,658.7,325.2,658.7,328.5"/>
			<path class="st17" d="M666.7,302.3h-19.3c-0.7,0-1.2-0.5-1.2-1.2l0,0V280c0-0.7,0.5-1.2,1.2-1.2h11.5c0.5,0,0.9,0.4,1.1,0.7
				l7.8,17c0,0.2,0.2,0.4,0.2,0.5v4.1C668.1,301.8,667.4,302.3,666.7,302.3L666.7,302.3"/>
		</g>
		<g>
			<path class="st61" d="M210.4,167.3h39.2c3.4,0,6.1,2.7,6.1,6.1l0,0v51.5l0,0h-51.3l0,0v-51.3
				C204.4,170.1,207.1,167.3,210.4,167.3L210.4,167.3z"/>
			<line class="st147" x1="230" y1="167.3" x2="230" y2="225"/>
			<path class="st62" d="M211.3,173.5h2.4c0.7,0,1.2,0.5,1.2,1.2v42.6c0,0.7-0.5,1.2-1.2,1.2h-2.4c-0.7,0-1.2-0.5-1.2-1.2v-42.4
				C210.1,174.2,210.6,173.5,211.3,173.5z"/>
			<path class="st62" d="M221.7,173.5h2.4c0.7,0,1.2,0.5,1.2,1.2v42.6c0,0.7-0.5,1.2-1.2,1.2h-2.4c-0.7,0-1.2-0.5-1.2-1.2v-42.4
				C220.5,174.2,221,173.5,221.7,173.5z"/>
			<path class="st62" d="M236,173.5h2.4c0.7,0,1.2,0.5,1.2,1.2v42.6c0,0.7-0.5,1.2-1.2,1.2H236c-0.7,0-1.2-0.5-1.2-1.2v-42.4
				C234.7,174.2,235.2,173.5,236,173.5z"/>
			<path class="st62" d="M246.3,173.5h2.4c0.7,0,1.2,0.5,1.2,1.2v42.6c0,0.7-0.5,1.2-1.2,1.2h-2.4c-0.7,0-1.2-0.5-1.2-1.2v-42.4
				C245.1,174.2,245.6,173.5,246.3,173.5z"/>
			
				<rect x="171.9" y="136.1" transform="matrix(0.8517 -0.524 0.524 0.8517 -44.7907 124.8923)" class="st35" width="52.7" height="10.9"/>
			<path class="st35" d="M223.2,125.2l11.4,18.7l0,0l-9.3,5.7l0,0l-13.8-22.7l0,0l5.2-3.2C219,122.3,221.9,123,223.2,125.2z"/>
			<path class="st8" d="M61.6,217.2l119.3-73.3l0,0l7.6,12.3l0,0L63.7,232.7l0,0l-4.2-6.9C57.7,222.8,58.7,218.9,61.6,217.2
				L61.6,217.2z"/>
			
				<rect x="129.9" y="187.1" transform="matrix(0.8789 -0.4771 0.4771 0.8789 -82.3098 88.0583)" class="st35" width="4.7" height="38"/>
			
				<rect x="146.8" y="209.5" transform="matrix(0.8789 -0.4771 0.4771 0.8789 -96.3371 101.0005)" class="st8" width="7.7" height="61.4"/>
			<path class="st35" d="M87,289.2c0,10.9-8.9,19.9-19.9,19.9s-19.9-8.9-19.9-19.9c0-10.9,8.9-19.9,19.9-19.9l0,0
				C78.2,269.4,87,278.3,87,289.2"/>
			<path class="st9" d="M77,289.2c0,5.4-4.4,9.8-9.8,9.8s-9.8-4.4-9.8-9.8s4.4-9.8,9.8-9.8l0,0C72.7,279.3,77,283.8,77,289.2
				L77,289.2"/>
			<path class="st35" d="M210.9,289.2c0,10.9-8.9,19.9-19.9,19.9s-19.9-8.9-19.9-19.9c0-10.9,8.9-19.9,19.9-19.9l0,0
				C202,269.4,210.9,278.3,210.9,289.2"/>
			<path class="st9" d="M201,289.2c0,5.4-4.4,9.8-9.8,9.8s-9.8-4.4-9.8-9.8s4.4-9.8,9.8-9.8l0,0C196.6,279.3,201,283.8,201,289.2
				L201,289.2"/>
			<polygon class="st8" points="40.4,299 40.4,262.5 201.5,262.5 201.5,266.5 176,266.5 161,299 95.2,299 83.9,266.5 44.4,266.5 
				44.4,299 			"/>
			<polygon class="st35" points="137.6,262.5 128.2,226.3 103.3,226.3 103.3,262.5 			"/>
			<path class="st8" d="M72.5,221.9c0-0.8,0.5-1.7,1.2-2.2l2.5-1.5c1-0.7,2.4-0.3,2.9,0.7c0,0,0,0.2,0.2,0.2L93,246.7l3.4,15.8H44.6
				v-2.7c0-2.5,1.3-4.7,3.5-5.9l24.2-12.3v-19.7H72.5z"/>
			<circle class="st10" cx="122.5" cy="188.1" r="3.4"/>
			<polygon class="st15" points="128.8,229.2 119.1,229.2 119.1,252.9 135.1,252.9 			"/>
			<rect x="106.3" y="229.2" class="st15" width="9.9" height="13.5"/>
			<rect x="216.8" y="140.9" class="st35" width="23" height="13.3"/>
			<polygon class="st35" points="243.7,163.6 213.1,163.6 216.8,154.1 240,154.1 			"/>
			<rect x="202.7" y="163.6" class="st35" width="51.3" height="3.5"/>
			<rect x="201" y="163.6" class="st35" width="3.5" height="8.2"/>
			<rect x="252.3" y="163.6" class="st35" width="3.5" height="8.2"/>
		</g>
	</g>
</g>
</svg>
